HIERARCHY
ROOT hip
{
  OFFSET 0.0 0.0 0.0
  CHANNELS 6 Xposition Yposition Zposition Zrotation Yrotation Xrotation
  JOINT torso
  {
    OFFSET 0.0 0.0 0.0
    CHANNELS 3 Zrotation Xrotation Yrotation
    JOINT neck
    {
      OFFSET -31.42098999999993 328.8025209999999 74.3554680000002
      CHANNELS 3 Zrotation Xrotation Yrotation
      JOINT head
      {
        OFFSET 3.3519900000001144 303.81732099999994 206.53942900000015
        CHANNELS 3 Zrotation Xrotation Yrotation
        End Site
        {
          OFFSET 0.0 0.0 0.0
        }
      }
    }
    JOINT left_collar
    {
      OFFSET -31.42098999999993 328.8025209999999 74.3554680000002
      CHANNELS 3 Zrotation Xrotation Yrotation
      JOINT left_upper_arm
      {
        OFFSET -124.490479 -8.162841999999841 8.226441000000023
        CHANNELS 3 Zrotation Xrotation Yrotation
        JOINT left_forearm
        {
          OFFSET -253.595764 -1.5758060000000569 105.0729980000001
          CHANNELS 3 Zrotation Xrotation Yrotation
          JOINT left_hand
          {
            OFFSET -269.48803699999996 0.1478270000000066 -55.346191999999974
            CHANNELS 3 Zrotation Xrotation Yrotation
            End Site
            {
              OFFSET 0.0 0.0 0.0
            }
          }
        }
      }
    }
    JOINT right_collar
    {
      OFFSET -31.42098999999993 328.8025209999999 74.3554680000002
      CHANNELS 3 Zrotation Xrotation Yrotation
      JOINT right_upper_arm
      {
        OFFSET 162.02484099999998 0.46441600000002836 2.2303470000001653
        CHANNELS 3 Zrotation Xrotation Yrotation
        JOINT right_forearm
        {
          OFFSET 240.01246700000004 -25.835875999999985 121.34179699999959
          CHANNELS 3 Zrotation Xrotation Yrotation
          JOINT right_hand
          {
            OFFSET 252.48539699999992 18.910399999999868 -67.53466800000001
            CHANNELS 3 Zrotation Xrotation Yrotation
            End Site
            {
              OFFSET 0.0 0.0 0.0
            }
          }
        }
      }
    }
  }
}
MOTION
Frames: 19
Frame Time: 0.01
-459.6604000537137 261.23694459775805 675.7491585486274 -10.870436484561377 -9.009210949353022 57.39933482071858 -2.0294609111857738 2.6563506957432654 0.6681885558938133 1.0726064250257767 -17.04198085686666 -0.6356644779745279 0.0 0.0 0.0 1.2757663350793471 0.36321595250292915 -3.6216460463119597 48.613725960826386 9.36310352878506 24.20961762174724 45.50409437614891 -5.803053443555378 -9.438104966864245 0.0 0.0 0.0 -2.2665426493075302 0.08056632668346721 2.9161269775386782 -41.16637411727563 20.289313989680966 -3.626789147609114 0.703829406845961 -0.9703596837342445 14.622895678906382 0.0 100.0 0.0
-459.4595926912683 261.2150609784975 675.9372625478361 -10.839574234245076 -9.012651875225124 57.271690433953694 -2.027832313411331 2.656550519799524 0.6678735507588015 1.0630403501403225 -17.04005988274934 -0.6284722757073725 0.0 0.0 0.0 1.2719724950780673 0.36278287288973243 -3.6208613741750453 48.605426564063556 9.358052095265766 24.2164630499673 45.50521120005953 -5.797997702730849 -9.450408216167817 0.0 0.0 0.0 -2.2729731438814587 0.0807993194340342 2.9149877113508174 -41.22504730613389 20.31597293409392 -3.6375429624068336 0.670280542395999 -0.9787367119084824 14.673216414388822 0.0 100.0 0.0
-459.2532829775273 261.19079686121836 676.1314346264539 -10.808105426599333 -9.017200393298394 57.14087912871502 -2.0264961038317124 2.6568467849825326 0.6676256244135186 1.0536690736129772 -17.036687994656493 -0.6214343043370686 0.0 0.0 0.0 1.2681038844920438 0.3622961681802105 -3.6194759781077366 48.59828558078376 9.354115875613067 24.221483334755973 45.507216780604985 -5.793347722815438 -9.462050014040345 0.0 0.0 0.0 -2.278530200687827 0.0810263381505114 2.9155153096689914 -41.28647737199805 20.342478701432185 -3.6512586820513597 0.6363063714204743 -0.9874429535804337 14.727487256783382 0.0 100.0 0.0
-459.04157294527903 261.1643645543835 676.331915719917 -10.775880630213047 -9.022897960972006 57.00702070256496 -2.025557344127897 2.6571930424255665 0.6674624298225499 1.04425296378494 -17.031928802752944 -0.6143699884746432 0.0 0.0 0.0 1.2642458028286623 0.36174202781131265 -3.6172013134666523 48.592219560995964 9.351453974168008 24.224299578288843 45.51012962761002 -5.789138559952984 -9.472953125648464 0.0 0.0 0.0 -2.2830980115163753 0.08124537769410685 2.9178450018546527 -41.35058646991055 20.368581560915032 -3.6682869899139345 0.6018041870078524 -0.9965069978309954 14.785960576455203 0.0 100.0 0.0
-458.82471070124876 261.1360794156386 676.5388490560885 -10.742743649092093 -9.02974244409423 56.870288440672276 -2.0251177732251926 2.657541229006435 0.6674008126369043 1.0345468006291194 -17.02588534232184 -0.6070943476534163 0.0 0.0 0.0 1.2604907376565253 0.3611073021711202 -3.6137478259452775 48.58710153699257 9.350212032711282 24.224541278507797 45.51396051292107 -5.785401320863622 -9.483047157014276 0.0 0.0 0.0 -2.2865857724593255 0.08145465818093887 2.9220721830824417 -41.417250413616436 20.39401944793723 -3.6889523903401775 0.5666477691550696 -1.0059546573505989 14.848820150976676 0.0 100.0 0.0
-458.60309464897995 261.1063543307128 676.7522728120606 -10.708537698068755 -9.037686907432118 56.73091091154608 -2.0252728144150374 2.6578431756156577 0.6674563245357399 1.0243094519080047 -17.018698512382894 -0.5994252936138444 0.0 0.0 0.0 1.2569375530244344 0.3603800579752187 -3.608833326246162 48.582763095374716 9.350517624216907 24.221857155038528 45.51871141103488 -5.782161179467586 -9.492272908543955 0.0 0.0 0.0 -2.288929598930743 0.08165267002852462 2.9282523044036233 -41.486299440704734 20.418520911883412 -3.7135489253852842 0.5306955891068753 -1.0158074523212972 14.916175533276984 0.0 100.0 0.0
-458.3772739887207 261.07569113323893 676.9721150880036 -10.673112049343143 -9.04663966957325 56.58917245534386 -2.0261085890114403 2.658052057790584 0.6676427341980645 1.0133136570638996 -17.01054434262052 -0.5911910107155003 0.0 0.0 0.0 1.2536905140546537 0.35955011652966345 -3.6021914439481275 48.57899776447554 9.352475714804532 24.21592638879469 45.524374553613484 -5.779435617179208 -9.500586232138962 0.0 0.0 0.0 -2.2900936296107344 0.08183821351736391 2.9364016372242387 -41.55752074829355 20.441808854660447 -3.7423363498753495 0.49379986974547263 -1.0260811677594504 14.988058438236138 0.0 100.0 0.0
-458.1479454509947 261.0446692235902 677.1981913834776 -10.636328844560294 -9.056465666226845 56.44541235506812 -2.0276990912582766 2.6581237678907645 0.6679715654189089 1.0013554766566624 -17.00163013767693 -0.5822370848115915 0.0 0.0 0.0 1.2508580737014319 0.35860955626785546 -3.5935800089308945 48.575565693381364 9.356164359988462 24.20646990198341 45.53093167937762 -5.777232994734017 -9.507961161775482 0.0 0.0 0.0 -2.2900703627684695 0.08201043169158921 2.9464986600444507 -41.630662771979196 20.463605060003015 -3.7755367381486855 0.4558161756911052 -1.0367845454236586 15.064421267153568 0.0 100.0 0.0
-457.9159463456668 261.0139317690313 677.4302046875423 -10.598069758981355 -9.066989125791126 56.30002273000711 -2.030103667051062 2.658018201988008 0.6684516904233558 0.9882629618568777 -16.992189589452927 -0.5724330440240861 0.0 0.0 0.0 1.2485513345190327 0.3575531605155686 -3.582789210066118 48.572199581640696 9.361630806130933 24.19326129482616 45.53835352513608 -5.775551524687875 -9.514392167711337 0.0 0.0 0.0 -2.2888802967889923 0.08216883677709806 2.9584859007939848 -41.70544107329832 20.483635404742536 -3.8133315734727793 0.41661316587762964 -1.0479181710943106 15.145137828147936 0.0 100.0 0.0
-457.6822441220142 260.98416997934714 677.667748216525 -10.558242223502429 -9.07799751853882 56.153445224820274 -2.0333649140117624 2.657700462092843 0.6690890018704242 0.9739036387815412 -16.982476984481067 -0.5616780059936559 0.0 0.0 0.0 1.2468821061012556 0.35637879144238926 -3.5696493599962333 48.568611793799185 9.36888816987496 24.176137048979157 45.546599565627524 -5.774378680244561 -9.51989545193397 0.0 0.0 0.0 -2.2865709665477376 0.08231333159766539 2.9722721626420987 -41.78154557902055 20.50163554561749 -3.8558594140213067 0.376082116253462 -1.0594736127026012 15.230006230596294 0.0 100.0 0.0
-457.44792273737704 260.9561060343109 677.9103107613738 -10.516784950032259 -9.089246693223066 56.00616657547486 -2.0375070907351054 2.6571419711648843 0.6698861807231835 0.9581904762978283 -16.9727606696946 -0.5499051826275182 0.0 0.0 0.0 1.2459605131979195 0.35508767203592867 -3.5540380509719 48.564502549604164 9.377912861992902 24.15500561070944 45.555617988085025 -5.773691049592264 -9.524509258970523 0.0 0.0 0.0 -2.283215467867656 0.0824442279023301 2.9877351391845273 -41.85864881121077 20.517356814865245 -3.9032142246800197 0.33414581611939304 -1.0714328538108566 15.318753831899706 0.0 100.0 0.0
-457.2141662262826 260.9304752816857 678.1572845422688 -10.473672555693545 -9.100467058736214 55.85871312362301 -2.0425350950581973 2.6563214819368253 0.6708425701999532 0.9410860992037972 -16.96331597598472 -0.5370850643427085 0.0 0.0 0.0 1.245892166141515 0.353684560246988 -3.5358864340088534 48.55956901486825 9.388642905962783 24.12985497949912 45.56534589036695 -5.773454623881758 -9.528293228063745 0.0 0.0 0.0 -2.2789105433670525 0.08256226278120457 3.0047244695101996 -41.93641468580772 20.530572042145483 -3.9554444253893477 0.2907664621438429 -1.0837680513936263 15.411044010299058 0.0 100.0 0.0
-456.9822399482761 260.90800832536394 678.4079754092983 -10.428919130175561 -9.1113706079813 55.71164434856485 -2.048434048661074 2.655225935959026 0.6719541595658916 0.9226051097661178 -16.95441782802222 -0.5232271824148569 0.0 0.0 0.0 1.2467749721834362 0.352177803567406 -3.5151843141035126 48.553515035703825 9.400977279444357 24.10075844334291 45.57570971305947 -5.7736254896845525 -9.531326861746097 0.0 0.0 0.0 -2.2737742772309444 0.08266861279351145 3.023065285998649 -42.01450744104694 20.541081039686752 -4.012552653523639 0.24595221843057785 -1.0964416289979628 15.50648444910221 0.0 100.0 0.0
-456.75347006229407 260.88941358666597 678.6616151717845 -10.38258063115512 -9.121658528954509 55.56554551204167 -2.055169507739518 2.653851109135402 0.6732136764950387 0.9028144801675401 -16.946333285097573 -0.5083804232235796 0.0 0.0 0.0 1.248695727521935 0.35057926802730527 -3.4919837483187433 48.54606117457657 9.41477638198335 24.067878118871157 45.58662594213435 -5.774150882659553 -9.533707228587513 0.0 0.0 0.0 -2.267943427962126 0.08276490365047688 3.042562268371196 -42.09260027480555 20.54871552753634 -4.074496185139129 0.1997621750512071 -1.1094066983156772 15.604636558413716 0.0 100.0 0.0
-456.5292218164803 260.8753608549651 678.9173757818854 -10.334756027570227 -9.131029115102965 55.421019565676225 -2.062688300580256 2.652201974764009 0.6746107826628073 0.881832067144872 -16.939314260385956 -0.49263193484963935 0.0 0.0 0.0 1.2517266713691562 0.3489041419030381 -3.4664008672671547 48.536954638235215 9.429863704374167 24.03146598054176 45.598002135014816 -5.774970549233047 -9.535546047115341 0.0 0.0 0.0 -2.261570420998972 0.0828532117691206 3.06300415275835 -42.17038331676014 20.553343325174076 -4.141187922298918 0.15230951596528963 -1.1226077854627203 15.70502563266082 0.0 100.0 0.0
-456.3108772504203 260.86646625702394 679.174385034948 -10.285587150586055 -9.139185675597027 55.27867852995015 -2.0709199636333757 2.650292724834911 0.6761323622813702 0.8598233685542837 -16.933590656404313 -0.4761047175294938 0.0 0.0 0.0 1.2559222011761986 0.34717061962714857 -3.4386156981804588 48.52597865000748 9.446028742496322 23.991862108449546 45.60973832044229 -5.77601835893916 -9.536966306942114 0.0 0.0 0.0 -2.2548200229161677 0.08293605312668904 3.08416858467152 -42.24757063407109 20.554871686727203 -4.212497841068355 0.10376279305455102 -1.1359818240206812 15.807151342117853 0.0 100.0 0.0
-456.0998128897895 260.8632789802916 679.431743375675 -10.235257265054218 -9.145844153193408 55.139134586097946 -2.079778706480319 2.6481464090453595 0.6777628866223642 0.8369966859196021 -16.929364134588536 -0.45895402205243646 0.0 0.0 0.0 1.261315948113175 0.3453994741617396 -3.4088698241608535 48.512960818824205 9.463031159451585 23.949489955578485 45.62172880291855 -5.7772241114754515 -9.538098573011284 0.0 0.0 0.0 -2.247865721839473 0.08301635492172231 3.1058271778108515 -42.32390605624872 20.553249703613186 -4.288254805136926 0.0543452874687747 -1.1494593661180035 15.910498177416484 0.0 100.0 0.0
-455.89737798601533 260.86626999545365 679.6885413205677 -10.18398843459006 -9.150740180132116 55.00299111250405 -2.089165794390787 2.645794174630719 0.6794848311539046 0.8135968838159593 -16.926802710778585 -0.4413626993558828 0.0 0.0 0.0 1.2679184026725732 0.34361352660926336 -3.3774617593554703 48.497780093162476 9.480606151875557 23.904848538355765 45.63386437375056 -5.778515486417382 -9.539077099540059 0.0 0.0 0.0 -2.240885844798986 0.08309740670653624 3.12775065571755 -42.399167688101805 20.548469735988593 -4.368248673333125 0.004332517196736995 -1.162965955869653 16.014545500931096 0.0 100.0 0.0
-455.7048738248827 260.8758229441598 679.9438769407487 -10.132037806308986 -9.153635338310105 54.87083385697716 -2.098972210729034 2.643274117045311 0.681279118797951 0.7898979578536928 -16.926036339190652 -0.4235356592047618 0.0 0.0 0.0 1.2757152628911148 0.3418370217477839 -3.3447399714465558 48.48037195569715 9.498470917418683 23.85850159311308 45.64603489875948 -5.779820085897823 -9.540035863143355 0.0 0.0 0.0 -2.234059454691122 0.08318278966791987 3.149713994249299 -42.473171046846026 20.540567861409265 -4.452232655507036 -0.04595197897671452 -1.1764236061182867 16.11877690582392 0.0 100.0 0.0
